<svg width="328" height="40" viewBox="0 0 328 40" fill="none" xmlns="http://www.w3.org/2000/svg">
<path d="M135.5 20.75H130.25V26H128.75V20.75H123.5V19.25H128.75V14H130.25V19.25H135.5V20.75Z" fill="#1F4BF4"/>
<path d="M153.205 17.776V18.826H158.959V17.776H153.205ZM147.339 24.412V25.462H159.911V24.412H147.339ZM152.603 13.45V24.972H153.709V13.45H152.603ZM164.585 13.296C163.801 15.424 162.499 17.524 161.113 18.882C161.309 19.12 161.603 19.68 161.701 19.918C163.227 18.35 164.655 15.984 165.579 13.604L164.585 13.296ZM163.101 16.908V26.106H164.123V15.914L164.109 15.9L163.101 16.908ZM167.497 20.184V21.164H172.691V20.184H167.497ZM172.355 20.184V20.296C171.613 21.206 170.157 22.844 168.967 24.076L169.821 24.608C171.039 23.334 172.467 21.738 173.461 20.576L172.719 20.114L172.551 20.184H172.355ZM168.897 13.324C168.309 15.76 167.329 19.176 166.615 21.164H167.749C168.365 19.274 169.303 15.928 169.919 13.464L168.897 13.324ZM165.747 14.878V15.844H173.573V14.878H165.747ZM164.935 17.524V18.504H174.217V17.524H164.935ZM167.427 23.25C168.757 24.076 170.339 25.322 171.095 26.134L171.879 25.35C171.095 24.566 169.541 23.418 168.183 22.62L167.427 23.25ZM182.853 16.474V17.44H188.607V16.474H182.853ZM186.353 13.422V24.776C186.353 25 186.269 25.07 186.045 25.084C185.849 25.084 185.177 25.084 184.435 25.07C184.575 25.364 184.729 25.826 184.771 26.092C185.807 26.106 186.437 26.064 186.829 25.896C187.207 25.714 187.361 25.406 187.361 24.776V13.422H186.353ZM183.161 19.218C183.679 20.226 184.309 21.57 184.589 22.438L185.457 22.018C185.163 21.164 184.519 19.862 183.973 18.854L183.161 19.218ZM182.349 13.254C181.747 15.298 180.739 17.314 179.563 18.616C179.759 18.812 180.095 19.274 180.221 19.47C181.495 18.014 182.601 15.774 183.315 13.52L182.349 13.254ZM176.273 13.842V26.12H177.225V14.794H179.451V13.842H176.273ZM179.115 13.842V14.136C178.849 15.102 178.373 16.796 177.911 18.098C178.835 19.26 179.045 20.254 179.045 21.038C179.045 21.486 178.975 21.906 178.793 22.06C178.681 22.13 178.541 22.172 178.373 22.186C178.177 22.2 177.939 22.2 177.645 22.158C177.799 22.438 177.869 22.83 177.883 23.096C178.177 23.124 178.513 23.11 178.765 23.082C179.045 23.04 179.283 22.956 179.465 22.816C179.843 22.536 179.997 21.92 179.997 21.136C179.997 20.254 179.773 19.204 178.835 17.986C179.283 16.824 179.759 15.396 180.123 14.192L179.451 13.8L179.297 13.842H179.115ZM181.229 16.614V26.05H182.181V15.83L182.069 15.788L181.229 16.614ZM197.831 13.422V26.12H198.881V13.422H197.831ZM195.409 13.954C195.087 15.774 194.499 17.58 193.687 18.756C193.953 18.868 194.387 19.12 194.597 19.274C195.395 18.028 196.039 16.11 196.417 14.15L195.409 13.954ZM195.549 16.11L195.283 17.146H202.087V16.11H195.549ZM193.799 20.226V21.262H202.703V20.226H193.799ZM193.113 13.296C192.371 15.424 191.125 17.524 189.809 18.882C190.005 19.134 190.313 19.68 190.411 19.918C191.867 18.336 193.225 15.97 194.107 13.604L193.113 13.296ZM191.699 16.908V26.106H192.707V15.928L192.693 15.914L191.699 16.908Z" fill="#1F4BF4"/>
</svg>
