<svg width="328" height="40" viewBox="0 0 328 40" fill="none" xmlns="http://www.w3.org/2000/svg">
<path d="M135.5 20.75H130.25V26H128.75V20.75H123.5V19.25H128.75V14H130.25V19.25H135.5V20.75Z" fill="#1F4BF4"/>
<path d="M152.211 20.982C151.903 22.088 151.329 23.334 150.461 24.048L151.231 24.664C152.183 23.824 152.729 22.466 153.065 21.276L152.211 20.982ZM155.557 21.514C155.991 22.466 156.383 23.712 156.509 24.538L157.363 24.216C157.223 23.404 156.831 22.172 156.355 21.234L155.557 21.514ZM157.293 21.206C158.119 22.256 158.973 23.726 159.309 24.706L160.205 24.23C159.841 23.264 158.987 21.836 158.119 20.786L157.293 21.206ZM156.817 17.16L155.907 17.468C156.663 19.008 158.049 20.45 159.519 21.178C159.673 20.912 159.995 20.52 160.233 20.324C158.833 19.736 157.489 18.49 156.817 17.16ZM154.423 14.71C153.821 17.524 152.407 19.428 150.069 20.534C150.279 20.716 150.643 21.136 150.783 21.36C153.205 20.072 154.745 18 155.487 14.878L154.423 14.71ZM158.371 13.38C156.719 13.912 153.597 14.248 150.965 14.388C151.091 14.64 151.217 15.032 151.259 15.284C153.947 15.158 157.167 14.836 159.197 14.178L158.371 13.38ZM150.475 16.726V17.692H159.869V16.726H150.475ZM153.961 19.526V24.958C153.961 25.126 153.905 25.168 153.723 25.182C153.541 25.196 152.925 25.196 152.225 25.168C152.351 25.462 152.491 25.84 152.519 26.106C153.471 26.106 154.087 26.106 154.451 25.952C154.843 25.798 154.941 25.504 154.941 24.972V19.526H153.961ZM147.815 14.122C148.627 14.528 149.593 15.186 150.055 15.662L150.699 14.822C150.195 14.346 149.215 13.744 148.417 13.38L147.815 14.122ZM147.143 17.93C147.983 18.28 148.991 18.882 149.495 19.33L150.097 18.49C149.593 18.042 148.571 17.482 147.731 17.16L147.143 17.93ZM147.451 25.35L148.403 25.952C149.019 24.706 149.705 23.068 150.237 21.668L149.397 21.08C148.823 22.592 148.025 24.314 147.451 25.35ZM169.345 23.866V24.888H173.153V23.866H169.345ZM161.617 15.9V16.922H166.993V15.9H161.617ZM168.869 14.99V25.91H169.891V15.998H172.593V25.812H173.657V14.99H168.869ZM166.713 15.9V16.152C166.615 22.144 166.489 24.216 166.167 24.65C166.041 24.832 165.915 24.874 165.705 24.86C165.439 24.86 164.837 24.86 164.179 24.804C164.361 25.098 164.473 25.56 164.487 25.868C165.117 25.91 165.761 25.91 166.153 25.854C166.573 25.812 166.825 25.686 167.077 25.322C167.525 24.706 167.623 22.662 167.735 16.432C167.735 16.292 167.735 15.9 167.735 15.9H166.713ZM163.605 13.436C163.591 18.336 163.605 22.956 161.267 25.42C161.533 25.574 161.897 25.896 162.079 26.134C164.543 23.46 164.613 18.602 164.627 13.436H163.605ZM176.287 13.856V26.134H177.309V14.822H186.899V26.134H187.949V13.856H176.287ZM176.889 24.594V25.532H187.515V24.594H176.889ZM180.361 21.108C181.495 21.346 182.923 21.836 183.693 22.214L184.141 21.514C183.357 21.15 181.929 20.688 180.809 20.464L180.361 21.108ZM180.921 15.102C180.207 16.236 179.003 17.328 177.813 18.042C178.023 18.196 178.387 18.504 178.541 18.672C179.717 17.888 180.991 16.684 181.789 15.396L180.921 15.102ZM184.659 16.208V16.362C183.455 18.238 180.305 19.624 177.561 20.156C177.743 20.352 177.953 20.772 178.051 21.024C180.893 20.366 184.155 18.84 185.597 16.53L185.009 16.166L184.841 16.208H184.659ZM180.305 16.978L179.521 17.342C180.907 19.022 183.497 20.31 186.059 20.856C186.185 20.604 186.451 20.254 186.647 20.058C184.099 19.596 181.537 18.462 180.305 16.978ZM180.599 16.208L180.039 17.034H184.967V16.208H180.599ZM178.975 22.886C180.907 23.124 183.329 23.684 184.659 24.16L185.135 23.376C183.763 22.914 181.355 22.382 179.465 22.158L178.975 22.886ZM192.441 16.866V17.958H202.017V16.866H192.441ZM196.963 13.268V17.37H198.069V13.268H196.963ZM191.881 13.604V18.28C191.881 20.758 191.685 23.348 189.907 25.336C190.159 25.518 190.551 25.91 190.719 26.148C192.735 23.95 192.973 21.066 192.973 18.28V13.604H191.881ZM192.399 20.184V21.276H198.713V26.134H199.847V20.184H192.399Z" fill="#1F4BF4"/>
</svg>
