<svg width="56" height="24" viewBox="0 0 56 24" fill="none" xmlns="http://www.w3.org/2000/svg">
<rect width="56" height="24" rx="4" fill="#FFFCE3"/>
<g clip-path="url(#clip0_794_1655)">
<path d="M18 9H6V11H18V9ZM6 15H18V13H6V15Z" fill="#FFC700"/>
</g>
<path d="M24.528 11.828V12.812H35.508V11.828H24.528ZM43.252 7.4V8.192H45.928V7.4H43.252ZM42.22 12.176V12.98H46.636V12.176H42.22ZM45.532 7.4V10.124C45.532 10.784 45.592 10.976 45.76 11.12C45.916 11.276 46.18 11.336 46.408 11.336C46.54 11.336 46.864 11.336 47.008 11.336C47.2 11.336 47.428 11.3 47.56 11.228C47.716 11.156 47.836 11.024 47.908 10.832C47.98 10.652 48.016 10.148 48.028 9.704C47.812 9.632 47.524 9.488 47.356 9.344C47.344 9.812 47.332 10.16 47.308 10.328C47.284 10.472 47.236 10.544 47.188 10.58C47.14 10.616 47.032 10.628 46.936 10.628C46.828 10.628 46.684 10.628 46.6 10.628C46.516 10.628 46.444 10.616 46.408 10.568C46.36 10.532 46.36 10.4 46.36 10.172V7.4H45.532ZM46.48 12.176V12.32C45.808 14.9 43.852 16.568 41.632 17.228C41.8 17.42 42.028 17.756 42.124 17.984C44.536 17.156 46.576 15.404 47.368 12.344L46.792 12.14L46.636 12.176H46.48ZM43.408 12.956L42.664 13.148C43.516 15.5 45.148 17.24 47.536 17.96C47.656 17.744 47.908 17.396 48.1 17.216C45.784 16.616 44.164 15.02 43.408 12.956ZM42.868 7.4V8.96C42.868 9.728 42.736 10.64 41.86 11.324C42.04 11.42 42.364 11.696 42.496 11.852C43.48 11.084 43.672 9.908 43.672 8.984V7.4H42.868ZM39.16 13.268V16.1H39.748V13.268H39.16ZM38.068 8.588V9.32H40.84V8.588H38.068ZM40.6 8.588V17.048C40.6 17.192 40.552 17.24 40.408 17.24C40.276 17.24 39.832 17.24 39.34 17.228C39.448 17.432 39.556 17.768 39.592 17.972C40.288 17.972 40.708 17.948 40.996 17.828C41.272 17.696 41.356 17.468 41.356 17.048V8.588H40.6ZM37.696 8.588V12.944C37.696 14.396 37.624 16.244 36.808 17.552C36.988 17.636 37.312 17.828 37.444 17.96C38.308 16.604 38.44 14.492 38.44 12.944V8.588H37.696ZM36.82 12.404L36.916 13.172C38.236 13.028 40.108 12.812 41.92 12.62L41.908 11.888C40.024 12.092 38.092 12.296 36.82 12.404ZM38.872 10.028C39.172 10.544 39.436 11.216 39.52 11.672L40.132 11.42C40.036 10.964 39.76 10.292 39.436 9.8L38.872 10.028ZM39.196 6.932C39.088 7.46 38.872 8.24 38.692 8.756L39.436 8.936C39.64 8.48 39.916 7.76 40.156 7.124L39.196 6.932Z" fill="#FFC700"/>
<defs>
<clipPath id="clip0_794_1655">
<rect width="24" height="24" fill="white"/>
</clipPath>
</defs>
</svg>
