<svg width="360" height="64" viewBox="0 0 360 64" fill="none" xmlns="http://www.w3.org/2000/svg">
<rect width="360" height="64" fill="white"/>
<rect x="16" y="18" width="45" height="28" rx="4" fill="#50BC61"/>
<path d="M31.963 26.052V27.046H35.463V26.052H31.963ZM31.333 26.052V30.532C31.333 32.702 31.151 35.502 29.247 37.448C29.485 37.588 29.891 37.924 30.059 38.12C32.075 36.048 32.355 32.87 32.355 30.546V26.052H31.333ZM34.987 26.052V36.048C34.987 37.252 35.071 37.518 35.309 37.714C35.519 37.91 35.841 37.98 36.121 37.98C36.289 37.98 36.625 37.98 36.821 37.98C37.115 37.98 37.367 37.924 37.577 37.798C37.773 37.644 37.899 37.406 37.969 37.014C38.011 36.65 38.067 35.628 38.067 34.83C37.815 34.732 37.479 34.578 37.269 34.368C37.255 35.32 37.241 36.062 37.213 36.37C37.185 36.706 37.143 36.832 37.073 36.902C37.003 36.986 36.905 37.014 36.779 37.014C36.653 37.014 36.471 37.014 36.373 37.014C36.275 37.014 36.191 36.986 36.121 36.93C36.051 36.86 36.037 36.594 36.037 36.146V26.052H34.987ZM25.089 28.25V29.258H30.507V28.25H25.089ZM27.427 25.24V38.106H28.435V25.24H27.427ZM27.371 28.866C26.909 30.91 25.831 33.304 24.753 34.564C24.935 34.802 25.201 35.222 25.313 35.516C26.447 34.116 27.539 31.386 28.071 29.104L27.371 28.866ZM28.337 30.406L27.805 30.91C28.295 31.484 29.527 33.052 29.933 33.724L30.577 32.87C30.255 32.464 28.757 30.798 28.337 30.406ZM45.723 28.474V29.482H51.337V28.474H45.723ZM50.819 28.474V28.712C50.665 34.284 50.469 36.3 50.091 36.748C49.937 36.916 49.783 36.958 49.545 36.944C49.237 36.944 48.509 36.944 47.711 36.874C47.907 37.168 48.019 37.602 48.047 37.91C48.789 37.952 49.545 37.966 49.979 37.924C50.441 37.868 50.721 37.756 51.001 37.378C51.491 36.762 51.659 34.788 51.841 29.006C51.841 28.866 51.855 28.474 51.855 28.474H50.819ZM47.753 25.492C47.739 30.07 47.725 34.886 45.037 37.35C45.303 37.518 45.667 37.868 45.849 38.106C48.691 35.418 48.761 30.364 48.789 25.492H47.753ZM39.871 26.388V27.34H45.289V26.388H39.871ZM39.367 29.734V30.686H45.541V29.734H39.367ZM43.497 32.142C44.015 33.416 44.617 35.124 44.855 36.118L45.779 35.796C45.527 34.83 44.897 33.15 44.351 31.904L43.497 32.142ZM39.871 36.398C40.207 36.202 40.739 36.048 45.051 35.082C45.009 34.858 44.939 34.452 44.911 34.172L40.319 35.138L39.787 35.516L39.871 36.398ZM39.871 36.398C39.871 36.174 40.599 35.81 40.599 35.81V35.796C41.313 34.354 42.027 32.296 42.461 30.42L41.439 30.098C41.103 31.918 40.389 33.934 40.179 34.438C39.941 34.984 39.759 35.348 39.535 35.418C39.647 35.684 39.815 36.174 39.871 36.398Z" fill="white"/>
<rect x="69" y="18" width="45" height="28" rx="4" fill="#DE3452"/>
<path d="M83.787 25.24V27.494H84.893V25.24H83.787ZM78.565 26.724V29.748H79.629V27.718H89.149V29.748H90.255V26.724H78.565ZM83.227 28.348C82.275 30.406 80.763 33.262 79.741 34.942L80.819 35.236C81.813 33.542 83.283 30.714 84.319 28.586L83.227 28.348ZM86.937 31.246C86.027 35.138 83.241 36.608 78.495 37.196C78.691 37.434 79.013 37.896 79.125 38.148C83.955 37.378 86.951 35.754 88.099 31.414L86.937 31.246ZM78.159 30.616V31.61H90.591V30.616H78.159ZM80.553 34.452C83.563 35.32 87.273 36.902 89.135 38.148L89.919 37.28C87.959 36.034 84.207 34.522 81.267 33.71L80.553 34.452ZM98.569 26.262C99.829 28.026 102.279 30.112 104.449 31.358C104.631 31.05 104.883 30.7 105.149 30.434C102.951 29.342 100.501 27.298 99.045 25.226H97.967C96.889 27.046 94.551 29.272 92.143 30.602C92.367 30.826 92.661 31.19 92.801 31.442C95.167 30.056 97.421 27.97 98.569 26.262ZM93.837 33.542V34.48H103.385V33.542H93.837ZM94.467 30.406V31.358H102.839V30.406H94.467ZM92.689 36.79V37.742H104.617V36.79H92.689ZM98.023 30.798V37.322H99.129V30.798H98.023Z" fill="white"/>
<rect x="122" y="18" width="45" height="28" rx="4" fill="#2C73FF"/>
<path d="M131.831 26.822V27.914H142.975V26.822H131.831ZM131.089 36.006V37.056H143.675V36.006H131.089ZM136.745 27.368V36.44H137.921V27.368H136.745ZM146.767 30.07V31.05H154.803V30.07H146.767ZM154.635 30.07C147.285 34.396 146.991 35.32 146.991 36.188C146.991 37.154 147.789 37.756 149.525 37.756H155.489C156.987 37.756 157.477 37.322 157.645 34.998C157.323 34.928 156.931 34.816 156.651 34.648C156.581 36.454 156.343 36.734 155.573 36.734H149.427C148.587 36.734 148.055 36.538 148.055 36.104C148.055 35.586 148.545 34.83 155.531 30.728C155.629 30.686 155.727 30.616 155.769 30.574L155.027 30.028L154.803 30.07H154.635ZM145.409 26.752V27.774H157.659V26.752H145.409ZM148.643 25.24V29.048H149.721V25.24H148.643ZM153.487 25.24V29.048H154.551V25.24H153.487Z" fill="white"/>
<rect x="175" y="18" width="45" height="28" rx="4" fill="#BA34DC"/>
<path d="M186.287 27.97V28.992H195.989V27.97H186.287ZM185.671 32.072V33.08H195.485V32.072H185.671ZM184.145 36.65V37.672H196.647V36.65H184.145ZM189.857 25.254V37.168H190.935V25.254H189.857ZM186.707 25.478C186.175 27.48 185.265 29.426 184.117 30.672C184.383 30.812 184.859 31.12 185.069 31.302C186.189 29.958 187.169 27.886 187.785 25.716L186.707 25.478ZM199.963 30.518V31.554H210.617V30.518H199.963ZM199.165 26.934V27.928H210.253V26.934H199.165ZM199.361 30.518V32.422C199.361 33.906 199.221 35.978 198.115 37.504C198.339 37.63 198.801 38.022 198.983 38.232C200.201 36.58 200.453 34.13 200.453 32.45V30.518H199.361ZM201.293 28.446C201.769 29.062 202.273 29.93 202.497 30.476L203.449 30.042C203.211 29.496 202.679 28.656 202.217 28.068L201.293 28.446ZM207.257 28.138C206.991 28.866 206.487 29.916 206.081 30.574L206.893 30.924C207.355 30.308 207.915 29.342 208.405 28.516L207.257 28.138ZM203.575 25.52C203.981 26.052 204.401 26.78 204.569 27.27L205.675 26.92C205.479 26.444 205.045 25.73 204.611 25.226L203.575 25.52Z" fill="white"/>
</svg>
