<svg width="56" height="24" viewBox="0 0 56 24" fill="none" xmlns="http://www.w3.org/2000/svg">
<rect width="56" height="24" rx="4" fill="#FFE3EC"/>
<g clip-path="url(#clip0_805_3198)">
<path fill-rule="evenodd" clip-rule="evenodd" d="M12 7.83L7.41 12.41L6 11L12 5L18 11L16.59 12.41L12 7.83ZM12 13.83L7.41 18.41L6 17L12 11L18 17L16.59 18.41L12 13.83Z" fill="#EF0A4F"/>
</g>
<path d="M29.268 8.228V9.056H34.944V8.228H29.268ZM28.56 10.58V11.42H35.496V10.58H28.56ZM28.764 12.86V13.7H35.424V12.86H28.764ZM31.632 6.92V11.024H32.52V6.92H31.632ZM33.12 11.3V16.844C33.12 17.024 33.072 17.06 32.88 17.072C32.664 17.084 32.004 17.084 31.284 17.06C31.416 17.324 31.536 17.708 31.572 17.96C32.496 17.96 33.132 17.948 33.516 17.804C33.9 17.66 34.02 17.396 34.02 16.856V11.3H33.12ZM29.388 14.456C29.976 15.044 30.624 15.872 30.888 16.436L31.62 15.968C31.32 15.404 30.66 14.612 30.072 14.048L29.388 14.456ZM24.42 13.448L24.66 14.324C25.872 13.94 27.492 13.436 29.016 12.944L28.896 12.164C27.264 12.656 25.548 13.16 24.42 13.448ZM26.664 6.932V17.96H27.504V6.932H26.664ZM25.176 7.568C25.032 9.044 24.792 10.568 24.336 11.588C24.528 11.672 24.876 11.876 25.02 11.984C25.476 10.916 25.776 9.296 25.956 7.7L25.176 7.568ZM25.248 9.356L25.104 10.22H28.74V9.356H25.248ZM38.5 9.74V10.496H45.448V13.244H38.248V13.988H46.336V9.74H38.5ZM39.844 7.832V8.576H43.96V7.832H39.844ZM38.62 11.504V12.212H45.796V11.504H38.62ZM40.156 6.884C39.592 8.036 38.5 9.404 36.916 10.388C37.132 10.532 37.42 10.82 37.564 11.036C39.244 9.908 40.384 8.432 41.128 7.064L40.156 6.884ZM40.036 14.9V16.676C40.036 17.552 40.324 17.804 41.548 17.804C41.788 17.804 43.468 17.804 43.72 17.804C44.704 17.804 44.968 17.456 45.076 15.992C44.836 15.944 44.464 15.812 44.284 15.668C44.224 16.856 44.14 17.024 43.648 17.024C43.276 17.024 41.884 17.024 41.62 17.024C41.02 17.024 40.912 16.964 40.912 16.664V14.9H40.036ZM40.852 14.396C41.644 14.72 42.58 15.272 43.024 15.716L43.612 15.08C43.144 14.636 42.208 14.12 41.416 13.82L40.852 14.396ZM44.968 15.056C45.808 15.788 46.732 16.82 47.128 17.54L47.932 17.06C47.512 16.34 46.552 15.332 45.7 14.636L44.968 15.056ZM38.584 14.768C38.308 15.656 37.768 16.532 36.916 17.024L37.66 17.564C38.584 16.988 39.076 16.028 39.4 15.056L38.584 14.768ZM43.756 7.832V8C43.504 8.576 42.952 9.428 42.484 9.944C42.688 10.04 43 10.232 43.168 10.364C43.672 9.812 44.32 8.924 44.716 8.18L44.092 7.784L43.948 7.832H43.756Z" fill="#EF0A4F"/>
<defs>
<clipPath id="clip0_805_3198">
<rect width="24" height="24" fill="white"/>
</clipPath>
</defs>
</svg>
