<svg width="328" height="40" viewBox="0 0 328 40" fill="none" xmlns="http://www.w3.org/2000/svg">
<g clip-path="url(#clip0_1307_6786)">
<path d="M136.75 23.9375V26.75H139.562L147.858 18.455L145.045 15.6425L136.75 23.9375ZM138.94 25.25H138.25V24.56L145.045 17.765L145.735 18.455L138.94 25.25ZM150.032 15.2225L148.278 13.4675C148.128 13.3175 147.94 13.25 147.745 13.25C147.55 13.25 147.362 13.325 147.22 13.4675L145.847 14.84L148.66 17.6525L150.032 16.28C150.325 15.9875 150.325 15.515 150.032 15.2225Z" fill="#1F4BF4"/>
</g>
<path d="M166.559 19.33L165.663 19.61C167.091 23.054 169.737 25.294 173.713 26.162C173.853 25.882 174.147 25.448 174.371 25.238C170.479 24.482 167.819 22.396 166.559 19.33ZM171.557 18.938V19.12C170.507 22.494 167.497 24.454 164.221 25.252C164.431 25.476 164.683 25.882 164.795 26.148C168.295 25.196 171.417 23.152 172.691 19.218L171.977 18.896L171.767 18.938H171.557ZM166.251 18.938L165.957 19.946H171.725V18.938H166.251ZM167.217 13.198C166.601 18.182 165.005 21.962 161.295 24.202C161.547 24.398 161.925 24.79 162.079 25.014C166.027 22.592 167.665 18.686 168.379 13.38L167.217 13.198ZM170.283 13.94C170.899 14.598 171.683 15.494 172.075 16.026L172.915 15.452C172.523 14.934 171.711 14.066 171.109 13.45L170.283 13.94ZM162.891 17.678C162.891 17.426 163.731 17.076 163.731 17.076V17.062C164.207 16.278 164.767 15.032 165.117 13.842L163.983 13.646C163.759 14.724 163.213 15.844 163.059 16.138C162.891 16.446 162.723 16.642 162.541 16.698C162.653 16.95 162.821 17.454 162.891 17.678ZM162.891 17.678C163.031 17.524 163.493 17.44 164.375 17.44H173.895V16.432H163.591L162.891 16.852V17.678ZM178.037 13.254V26.12H179.017V13.254H178.037ZM176.049 15.9V23.25H176.889V16.852H180.669V15.9H176.049ZM180.235 15.9V22.13C180.235 22.228 180.207 22.27 180.095 22.27C179.983 22.284 179.689 22.284 179.311 22.27C179.437 22.536 179.549 22.942 179.577 23.208C180.123 23.208 180.487 23.194 180.739 23.026C181.005 22.844 181.061 22.55 181.061 22.144V15.9H180.235ZM181.999 19.33V26.092H182.965V20.282H186.843V26.05H187.837V19.33H181.999ZM184.015 13.268V19.932H185.037V13.268H184.015ZM184.743 15.886V16.88H188.495V15.886H184.743ZM182.615 24.3V25.28H187.361V24.3H182.615Z" fill="#1F4BF4"/>
<defs>
<clipPath id="clip0_1307_6786">
<rect width="18" height="18" fill="white" transform="translate(134.5 11)"/>
</clipPath>
</defs>
</svg>
