<svg width="48" height="48" viewBox="0 0 48 48" fill="none" xmlns="http://www.w3.org/2000/svg">
<rect width="48" height="48" rx="8" fill="#CFDAFC"/>
<g clip-path="url(#clip0_805_3153)">
<path d="M23 27H25V29H23V27ZM23 19H25V25H23V19ZM31 15H26.82C26.4 13.84 25.3 13 24 13C22.7 13 21.6 13.84 21.18 15H17C16.86 15 16.73 15.01 16.6 15.04C16.21 15.12 15.86 15.32 15.59 15.59C15.41 15.77 15.26 15.99 15.16 16.23C15.06 16.46 15 16.72 15 17V31C15 31.27 15.06 31.54 15.16 31.78C15.26 32.02 15.41 32.23 15.59 32.42C15.86 32.69 16.21 32.89 16.6 32.97C16.73 32.99 16.86 33 17 33H31C32.1 33 33 32.1 33 31V17C33 15.9 32.1 15 31 15ZM24 14.75C24.41 14.75 24.75 15.09 24.75 15.5C24.75 15.91 24.41 16.25 24 16.25C23.59 16.25 23.25 15.91 23.25 15.5C23.25 15.09 23.59 14.75 24 14.75ZM31 31H17V17H31V31Z" fill="#0247FE"/>
</g>
<defs>
<clipPath id="clip0_805_3153">
<rect width="24" height="24" fill="white" transform="translate(12 12)"/>
</clipPath>
</defs>
</svg>
