<svg width="56" height="24" viewBox="0 0 56 24" fill="none" xmlns="http://www.w3.org/2000/svg">
<rect width="56" height="24" rx="4" fill="#FFF1E3"/>
<g clip-path="url(#clip0_805_3214)">
<path d="M7.41 15.41L12 10.83L16.59 15.41L18 14L12 8L6 14L7.41 15.41Z" fill="#F3A000"/>
</g>
<path d="M25.512 15.512C25.512 15.344 26.172 15.164 26.172 15.164V15.14C28.236 14.516 30.36 13.664 32.352 12.524L31.74 11.876C29.88 13.016 27.552 13.976 26.82 14.228C26.148 14.468 25.644 14.612 25.26 14.66C25.356 14.9 25.476 15.332 25.512 15.512ZM25.512 15.512C25.968 15.368 26.64 15.32 34.092 14.9C34.032 14.744 33.96 14.432 33.936 14.204L26.124 14.588L25.5 14.9L25.512 15.512ZM26.388 13.676C26.388 13.496 26.94 13.268 26.94 13.268V13.244C27.84 12.872 28.752 12.32 29.592 11.684L28.872 11.168C28.164 11.828 27.168 12.428 26.856 12.572C26.58 12.728 26.34 12.836 26.124 12.86C26.22 13.088 26.352 13.496 26.388 13.676ZM26.388 13.676C26.64 13.592 27.048 13.556 30.228 13.436C30.264 13.268 30.348 12.944 30.42 12.74L26.868 12.836L26.388 13.076V13.676ZM29.724 14.672V16.976C29.724 17.12 29.676 17.156 29.484 17.168C29.304 17.168 28.692 17.168 27.984 17.144C28.116 17.372 28.26 17.684 28.308 17.936C29.184 17.936 29.772 17.924 30.132 17.804C30.528 17.672 30.624 17.456 30.624 16.988V14.672H29.724ZM32.028 13.58C32.916 14.18 33.936 15.044 34.404 15.656L35.064 15.164C34.56 14.552 33.504 13.712 32.64 13.148L32.028 13.58ZM31.596 16.076C32.568 16.568 33.78 17.336 34.38 17.84L35.064 17.324C34.428 16.808 33.192 16.076 32.244 15.608L31.596 16.076ZM27.564 15.572C26.868 16.196 25.788 16.82 24.78 17.228C24.996 17.372 25.332 17.684 25.488 17.84C26.448 17.372 27.6 16.64 28.38 15.908L27.564 15.572ZM29.244 7.412V8.204H34.044V7.412H29.244ZM30.6 7.892L29.868 8.084C30.684 10.124 32.328 11.396 34.74 11.912C34.848 11.672 35.088 11.312 35.292 11.12C32.952 10.736 31.308 9.632 30.6 7.892ZM33.828 7.412V7.544C33.108 9.476 31.044 10.568 28.812 10.988C28.98 11.156 29.172 11.516 29.256 11.732C31.668 11.18 33.828 9.968 34.692 7.604L34.164 7.376L34.008 7.412H33.828ZM25.344 7.688V11.252H26.16V7.688H25.344ZM27.384 7.148V11.66H28.2V7.148H27.384ZM38.5 9.74V10.496H45.448V13.244H38.248V13.988H46.336V9.74H38.5ZM39.844 7.832V8.576H43.96V7.832H39.844ZM38.62 11.504V12.212H45.796V11.504H38.62ZM40.156 6.884C39.592 8.036 38.5 9.404 36.916 10.388C37.132 10.532 37.42 10.82 37.564 11.036C39.244 9.908 40.384 8.432 41.128 7.064L40.156 6.884ZM40.036 14.9V16.676C40.036 17.552 40.324 17.804 41.548 17.804C41.788 17.804 43.468 17.804 43.72 17.804C44.704 17.804 44.968 17.456 45.076 15.992C44.836 15.944 44.464 15.812 44.284 15.668C44.224 16.856 44.14 17.024 43.648 17.024C43.276 17.024 41.884 17.024 41.62 17.024C41.02 17.024 40.912 16.964 40.912 16.664V14.9H40.036ZM40.852 14.396C41.644 14.72 42.58 15.272 43.024 15.716L43.612 15.08C43.144 14.636 42.208 14.12 41.416 13.82L40.852 14.396ZM44.968 15.056C45.808 15.788 46.732 16.82 47.128 17.54L47.932 17.06C47.512 16.34 46.552 15.332 45.7 14.636L44.968 15.056ZM38.584 14.768C38.308 15.656 37.768 16.532 36.916 17.024L37.66 17.564C38.584 16.988 39.076 16.028 39.4 15.056L38.584 14.768ZM43.756 7.832V8C43.504 8.576 42.952 9.428 42.484 9.944C42.688 10.04 43 10.232 43.168 10.364C43.672 9.812 44.32 8.924 44.716 8.18L44.092 7.784L43.948 7.832H43.756Z" fill="#F3A100"/>
<defs>
<clipPath id="clip0_805_3214">
<rect width="24" height="24" fill="white"/>
</clipPath>
</defs>
</svg>
